<?xml version="1.0" encoding="UTF-8" standalone="no"?>
<!-- Created with Inkscape (http://www.inkscape.org/) -->

<svg
   xmlns:dc="http://purl.org/dc/elements/1.1/"
   xmlns:cc="http://creativecommons.org/ns#"
   xmlns:rdf="http://www.w3.org/1999/02/22-rdf-syntax-ns#"
   xmlns:svg="http://www.w3.org/2000/svg"
   xmlns="http://www.w3.org/2000/svg"
   xmlns:sodipodi="http://sodipodi.sourceforge.net/DTD/sodipodi-0.dtd"
   xmlns:inkscape="http://www.inkscape.org/namespaces/inkscape"
   width="210mm"
   height="297mm"
   viewBox="0 0 744.09448819 1052.3622047"
   id="svg4541"
   version="1.1"
   inkscape:version="0.91 r13725"
   sodipodi:docname="logo.svg">
  <defs
     id="defs4543" />
  <sodipodi:namedview
     id="base"
     pagecolor="#ffffff"
     bordercolor="#666666"
     borderopacity="1.0"
     inkscape:pageopacity="0.0"
     inkscape:pageshadow="2"
     inkscape:zoom="1.4"
     inkscape:cx="327.02551"
     inkscape:cy="598.86183"
     inkscape:document-units="px"
     inkscape:current-layer="layer1"
     showgrid="false"
     inkscape:window-width="1869"
     inkscape:window-height="1056"
     inkscape:window-x="51"
     inkscape:window-y="24"
     inkscape:window-maximized="1" />
  <metadata
     id="metadata4546">
    <rdf:RDF>
      <cc:Work
         rdf:about="">
        <dc:format>image/svg+xml</dc:format>
        <dc:type
           rdf:resource="http://purl.org/dc/dcmitype/StillImage" />
        <dc:title></dc:title>
      </cc:Work>
    </rdf:RDF>
  </metadata>
  <g
     inkscape:label="Layer 1"
     inkscape:groupmode="layer"
     id="layer1">
    <path
       style="opacity:0.43600003;fill:#ffcc00;fill-opacity:1;stroke:none;stroke-width:21.91625977;stroke-miterlimit:4;stroke-dasharray:none;stroke-opacity:1"
       d="m 549.74857,316.85511 0,12.3468 0,12.3468 0,12.3468 0,12.3467 0,12.3468 0,12.3468 -339.49715,123.4679 0,-12.3468 0,-12.3468 0,-12.3468 0,-12.3468 0,-12.3467 0,-12.3468 z"
       id="polygon4929-3-1-6-3-6-9-9-1-6"
       inkscape:connector-curvature="0"
       sodipodi:nodetypes="ccccccccccccccc"
       inkscape:export-xdpi="150"
       inkscape:export-ydpi="150" />
    <polygon
       style="fill:#c04384;fill-opacity:1;stroke:none;stroke-width:21.91625977;stroke-miterlimit:4;stroke-dasharray:none;stroke-opacity:1"
       class="cls-2"
       points="1540.5,612.6 1181.8,821 815.1,612.6 815.1,190.5 1181.8,-16.6 1181.8,-16.6 1540.5,190.5 "
       id="polygon4929-3-1-6-3-6-9-9-7"
       transform="matrix(0.46801371,0,0,0.46801371,-171.22655,227.69851)"
       inkscape:export-xdpi="150"
       inkscape:export-ydpi="150" />
    <path
       style="fill:#ffffff;fill-opacity:1;stroke:#ffffff;stroke-width:5;stroke-miterlimit:4;stroke-dasharray:none;stroke-opacity:1"
       d="m 219.41894,322.20781 0,111.7109 321.16201,-41.653 0,-70.0921 c -52.9264,-30.5566 -105.8529,-61.1133 -158.7793,-91.6699 z"
       id="polygon4929-3-1-0-2-4-67-4-75-5"
       inkscape:connector-curvature="0"
       inkscape:export-xdpi="150"
       inkscape:export-ydpi="150"
       sodipodi:nodetypes="cccccc" />
    <text
       xml:space="preserve"
       style="font-style:normal;font-variant:normal;font-weight:normal;font-stretch:normal;font-size:10.80540657px;line-height:0%;font-family:Roboto;-inkscape-font-specification:Roboto;text-align:center;letter-spacing:0px;word-spacing:0px;text-anchor:middle;fill:#ffffff;fill-opacity:1;stroke:none;stroke-width:1.5;stroke-linecap:butt;stroke-linejoin:miter;stroke-miterlimit:4;stroke-dasharray:none;stroke-opacity:1"
       x="380.9877"
       y="422.38278"
       id="text5520-5-7-6-6-1-1-3-4-9-1-0-1-2"
       inkscape:export-xdpi="150"
       inkscape:export-ydpi="150"
       transform="scale(0.99984872,1.0001513)"
       sodipodi:linespacing="0%"><tspan
         sodipodi:role="line"
         id="tspan5522-2-5-2-0-0-0-2-00-3-7-8-8-9"
         x="389.79269"
         y="422.38278"
         style="font-style:normal;font-variant:normal;font-weight:normal;font-stretch:normal;font-size:60.10874939px;line-height:1.25;font-family:FlandersArtSerif-Regular;-inkscape-font-specification:FlandersArtSerif-Regular;fill:#ffffff;fill-opacity:1;stroke:none;stroke-width:1.5;stroke-miterlimit:4;stroke-dasharray:none;stroke-opacity:1"> </tspan><tspan
         sodipodi:role="line"
         x="380.9877"
         y="499.2973"
         id="tspan5526-0-5-1-2-5-3-7-62-0-3-6-96-1"
         style="font-style:normal;font-variant:normal;font-weight:normal;font-stretch:normal;font-size:61.90597534px;line-height:1.25;font-family:FlandersArtSans-Regular;-inkscape-font-specification:FlandersArtSans-Regular;fill:#ffffff;fill-opacity:1;stroke:none;stroke-width:1.5;stroke-miterlimit:4;stroke-dasharray:none;stroke-opacity:1">TUTORIALS</tspan></text>
    <g
       id="g57907-60-2"
       transform="translate(-508.23289,-1793.0893)"
       style="fill:#c04384;fill-opacity:1"
       inkscape:export-xdpi="150"
       inkscape:export-ydpi="150">
      <g
         transform="matrix(0.15348456,0,0,-0.15348456,718.03609,2188.7266)"
         id="g5297-7-4-0-6-2-4-7"
         style="fill:#c04384;fill-opacity:1">
        <path
           inkscape:connector-curvature="0"
           id="path5299-4-8-3-9-2-8-0"
           style="fill:#c04384;fill-opacity:1;fill-rule:nonzero;stroke:none"
           d="m 228.762,380.879 12.984,0 c 14.067,0 25.488,1.758 33.496,6.25 8.012,4.492 12.403,11.816 12.403,22.851 0,11.719 -4.2,19.043 -11.817,23.438 -7.613,4.297 -18.457,5.762 -31.64,5.762 l -15.426,0 0,-58.301 z m -15.141,72.461 31.543,0 c 21.484,0 35.742,-3.32 44.731,-10.254 8.984,-7.031 12.593,-17.481 12.593,-31.836 0,-9.863 -1.953,-17.676 -5.758,-23.828 -3.808,-6.25 -9.281,-10.645 -16.015,-13.77 1.558,-4.004 4.297,-9.082 7.808,-14.257 3.418,-5.176 7.524,-10.45 11.915,-14.747 4.296,-4.394 8.792,-8.007 13.085,-9.668 l -8.296,-12.304 c -5.082,1.074 -10.356,4.98 -15.332,10.351 -5.082,5.371 -9.868,11.914 -13.965,18.457 -4.106,6.543 -7.524,12.793 -9.77,17.481 -8.301,-1.66 -17.769,-2.246 -28.023,-2.246 l -9.375,0 0,-42.09 -15.141,0 0,128.711" />
        <path
           inkscape:connector-curvature="0"
           id="path5301-2-4-4-8-6-88-9"
           style="fill:#c04384;fill-opacity:1;fill-rule:nonzero;stroke:none"
           d="m 411.57,453.34 0,-14.063 -62.398,0 0,-43.261 62.398,0 0,-14.063 -62.398,0 0,-43.262 62.398,0 0,-14.062 -77.539,0 0,128.711 77.539,0" />
        <path
           inkscape:connector-curvature="0"
           id="path5303-5-8-7-7-4-97-3"
           style="fill:#c04384;fill-opacity:1;fill-rule:nonzero;stroke:none"
           d="m 425.535,342.109 c 6.836,-3.125 19.438,-5.371 28.32,-5.371 14.844,0 29.497,5.371 29.497,21.192 0,8.593 -4.004,13.672 -11.332,18.261 -6.153,3.907 -30.665,15.43 -35.934,19.825 -6.25,4.98 -10.156,12.988 -10.156,24.609 0,24.219 17.285,34.668 39.84,34.668 7.914,0 15.625,-1.367 22.66,-3.418 l 0,-12.891 -0.293,-0.195 c -5.864,1.172 -14.16,2.637 -22.367,2.637 -14.254,0 -26.075,-4.59 -26.075,-19.629 0,-6.348 2.051,-9.863 5.571,-12.988 6.343,-5.664 26.367,-13.77 36.035,-20.704 10.547,-7.519 16.109,-12.5 16.109,-26.855 0,-25.586 -21.387,-38.574 -45.894,-38.574 -9.375,0 -18.457,1.855 -26.274,5.664 l 0,13.672 0.293,0.097" />
        <path
           inkscape:connector-curvature="0"
           id="path5305-2-1-7-2-1-7-6"
           style="fill:#c04384;fill-opacity:1;fill-rule:nonzero;stroke:none"
           d="m 599.363,453.34 0,-14.063 -62.398,0 0,-43.261 62.398,0 0,-14.063 -62.398,0 0,-43.262 62.398,0 0,-14.062 -77.539,0 0,128.711 77.539,0" />
        <path
           inkscape:connector-curvature="0"
           id="path5307-4-6-1-8-2-6-0"
           style="fill:#c04384;fill-opacity:1;fill-rule:nonzero;stroke:none"
           d="m 684.719,368.672 -23.633,68.457 -23.637,-68.457 47.27,0 z m -52.051,-14.063 -10.355,-29.98 -15.625,0 44.242,128.711 20.215,0 44.335,-128.711 -15.625,0 -10.351,29.98 -56.836,0" />
        <path
           inkscape:connector-curvature="0"
           id="path5309-4-8-6-2-8-4-6"
           style="fill:#c04384;fill-opacity:1;fill-rule:nonzero;stroke:none"
           d="m 748.684,380.879 12.988,0 c 14.058,0 25.484,1.758 33.496,6.25 8.008,4.492 12.398,11.816 12.398,22.851 0,11.719 -4.199,19.043 -11.812,23.438 -7.617,4.297 -18.457,5.762 -31.645,5.762 l -15.425,0 0,-58.301 z m -15.137,72.461 31.543,0 c 21.48,0 35.738,-3.32 44.723,-10.254 8.988,-7.031 12.597,-17.481 12.597,-31.836 0,-9.863 -1.949,-17.676 -5.762,-23.828 -3.804,-6.25 -9.277,-10.645 -16.011,-13.77 1.558,-4.004 4.297,-9.082 7.808,-14.257 3.418,-5.176 7.524,-10.45 11.914,-14.747 4.297,-4.394 8.789,-8.007 13.086,-9.668 l -8.3,-12.304 c -5.079,1.074 -10.348,4.98 -15.332,10.351 -5.079,5.371 -9.864,11.914 -13.961,18.457 -4.106,6.543 -7.524,12.793 -9.766,17.481 -8.305,-1.66 -17.773,-2.246 -28.027,-2.246 l -9.375,0 0,-42.09 -15.137,0 0,128.711" />
        <path
           inkscape:connector-curvature="0"
           id="path5311-3-5-5-9-8-3-2"
           style="fill:#c04384;fill-opacity:1;fill-rule:nonzero;stroke:none"
           d="m 939.988,340.547 0,-13.867 c -4.39,-1.27 -9.566,-2.246 -14.644,-2.93 -5.176,-0.781 -10.449,-1.074 -15.039,-1.074 -21.489,0 -37.602,7.031 -48.149,19.14 -10.64,12.11 -16.011,29.2 -16.011,49.219 0.386,18.067 5.664,34.278 16.21,45.801 10.543,11.523 26.461,18.457 47.95,18.457 4.59,0 9.863,-0.391 15.039,-1.074 5.078,-0.684 10.254,-1.66 14.644,-2.93 l 0,-13.867 -0.679,-0.391 c -4.59,1.465 -9.668,2.442 -14.653,3.125 -4.976,0.684 -9.668,0.977 -13.57,0.977 -16.699,0 -29.199,-5.371 -37.402,-14.453 -8.301,-9.082 -12.5,-22.266 -12.5,-37.598 0,-15.234 4.097,-28.223 12.402,-37.5 8.301,-9.277 20.699,-14.746 37.5,-14.746 3.902,0 8.594,0.293 13.57,0.977 4.985,0.683 10.063,1.66 14.653,3.125 l 0.679,-0.391" />
        <path
           inkscape:connector-curvature="0"
           id="path5313-8-2-5-9-9-0-6"
           style="fill:#c04384;fill-opacity:1;fill-rule:nonzero;stroke:none"
           d="m 974.656,381.465 0,-56.836 -15.136,0 0,128.711 15.136,0 0,-56.836 62.794,0 0,56.836 15.14,0 0,-128.711 -15.14,0 0,56.836 -62.794,0" />
        <path
           inkscape:connector-curvature="0"
           id="path5315-6-1-4-6-28-3-1"
           style="fill:#c04384;fill-opacity:1;fill-rule:nonzero;stroke:none"
           d="m 1142.43,324.629 15.0391,0 0,128.711 -15.0391,0 0,-128.711 z" />
        <path
           inkscape:connector-curvature="0"
           id="path5317-0-9-6-0-8-09-8"
           style="fill:#c04384;fill-opacity:1;fill-rule:nonzero;stroke:none"
           d="m 1203.86,324.629 -15.14,0 0,128.711 15.72,0 62.21,-99.512 0,99.512 15.14,0 0,-128.711 -15.14,0 -62.79,100.391 0,-100.391" />
        <path
           inkscape:connector-curvature="0"
           id="path5319-8-9-8-2-8-2-7"
           style="fill:#c04384;fill-opacity:1;fill-rule:nonzero;stroke:none"
           d="m 1305.52,342.109 c 6.83,-3.125 19.43,-5.371 28.32,-5.371 14.84,0 29.49,5.371 29.49,21.192 0,8.593 -4,13.672 -11.33,18.261 -6.15,3.907 -30.66,15.43 -35.94,19.825 -6.25,4.98 -10.15,12.988 -10.15,24.609 0,24.219 17.28,34.668 39.84,34.668 7.91,0 15.63,-1.367 22.66,-3.418 l 0,-12.891 -0.29,-0.195 c -5.86,1.172 -14.16,2.637 -22.37,2.637 -14.26,0 -26.07,-4.59 -26.07,-19.629 0,-6.348 2.05,-9.863 5.56,-12.988 6.35,-5.664 26.37,-13.77 36.04,-20.704 10.55,-7.519 16.11,-12.5 16.11,-26.855 0,-25.586 -21.38,-38.574 -45.9,-38.574 -9.37,0 -18.45,1.855 -26.27,5.664 l 0,13.672 0.3,0.097" />
        <path
           inkscape:connector-curvature="0"
           id="path5321-9-6-1-7-6-5-9"
           style="fill:#c04384;fill-opacity:1;fill-rule:nonzero;stroke:none"
           d="m 1469.67,453.34 0,-14.063 -39.84,0 0,-114.648 -15.04,0 0,114.648 -39.84,0 0,14.063 94.72,0" />
        <path
           inkscape:connector-curvature="0"
           id="path5323-2-0-0-6-8-4-2"
           style="fill:#c04384;fill-opacity:1;fill-rule:nonzero;stroke:none"
           d="m 1489.69,324.629 15.0391,0 0,128.711 -15.0391,0 0,-128.711 z" />
        <path
           inkscape:connector-curvature="0"
           id="path5325-2-6-5-1-3-0-0"
           style="fill:#c04384;fill-opacity:1;fill-rule:nonzero;stroke:none"
           d="m 1619.48,453.34 0,-14.063 -39.85,0 0,-114.648 -15.04,0 0,114.648 -39.84,0 0,14.063 94.73,0" />
        <path
           inkscape:connector-curvature="0"
           id="path5327-3-4-1-3-8-5-2"
           style="fill:#c04384;fill-opacity:1;fill-rule:nonzero;stroke:none"
           d="m 1730.32,453.34 0,-80.86 c 0,-14.55 -2.93,-25.097 -7.62,-32.421 -4.69,-7.422 -11.13,-11.817 -18.26,-14.258 -7.13,-2.442 -14.94,-3.125 -22.27,-3.125 -7.32,0 -14.94,0.683 -21.97,3.125 -7.13,2.441 -13.48,6.738 -18.16,14.16 -4.69,7.422 -7.52,17.773 -7.52,32.519 l 0,80.86 15.04,0 0,-75.977 c 0,-12.793 1.85,-21.679 4.98,-27.636 3.02,-5.957 7.42,-9.278 12.2,-11.133 4.79,-1.856 10.16,-2.051 15.34,-2.051 5.76,0 11.32,0.293 16.3,2.246 4.98,1.856 9.09,5.176 12.11,11.231 3.03,6.054 4.79,14.746 4.79,27.343 l 0,75.977 15.04,0" />
        <path
           inkscape:connector-curvature="0"
           id="path5329-1-9-8-2-3-94-3"
           style="fill:#c04384;fill-opacity:1;fill-rule:nonzero;stroke:none"
           d="m 1840.47,453.34 0,-14.063 -39.84,0 0,-114.648 -15.04,0 0,114.648 -39.84,0 0,14.063 94.72,0" />
        <path
           inkscape:connector-curvature="0"
           id="path5331-8-9-9-1-3-6-7"
           style="fill:#c04384;fill-opacity:1;fill-rule:nonzero;stroke:none"
           d="m 1930.22,453.34 0,-14.063 -62.4,0 0,-43.261 62.4,0 0,-14.063 -62.4,0 0,-43.262 62.4,0 0,-14.062 -77.54,0 0,128.711 77.54,0" />
        <path
           inkscape:connector-curvature="0"
           id="path5333-3-0-1-5-3-92-5"
           style="fill:#c04384;fill-opacity:1;fill-rule:nonzero;stroke:none"
           d="m 233.547,144.629 -22.856,0 0,128.711 22.856,0 53.516,-85.645 0,85.645 22.847,0 0,-128.711 -22.847,0 -53.516,85.547 0,-85.547" />
        <path
           inkscape:connector-curvature="0"
           id="path5335-4-8-8-9-8-24-9"
           style="fill:#c04384;fill-opacity:1;fill-rule:nonzero;stroke:none"
           d="m 401.316,193.262 -17.378,50.586 -17.485,-50.586 34.863,0 z m -30.757,82.031 26.754,0 45.023,-130.664 -24.223,0 -9.175,26.66 -50,0 -9.18,-26.66 -24.223,0 45.024,130.664" />
        <path
           inkscape:connector-curvature="0"
           id="path5337-2-9-1-9-0-7-2"
           style="fill:#c04384;fill-opacity:1;fill-rule:nonzero;stroke:none"
           d="m 535.496,273.34 0,-21.973 -39.058,0 0,-106.738 -22.852,0 0,106.738 -39.066,0 0,21.973 100.976,0" />
        <path
           inkscape:connector-curvature="0"
           id="path5339-2-3-0-1-4-7-2"
           style="fill:#c04384;fill-opacity:1;fill-rule:nonzero;stroke:none"
           d="m 572.02,273.34 0,-72.461 c 0,-14.941 3.031,-24.024 8.207,-29.297 5.171,-5.273 12.886,-6.934 21.968,-6.934 9.282,0 16.797,1.661 21.977,6.934 5.176,5.273 8.199,14.356 8.199,29.297 l 0,72.461 22.856,0 0,-79.004 c 0,-15.137 -3.516,-25.879 -8.989,-33.594 -5.562,-7.715 -12.886,-12.109 -20.601,-14.746 -7.817,-2.637 -15.727,-3.32 -22.367,-3.32 l -2.149,0 c -6.641,0 -14.551,0.683 -22.266,3.32 -7.808,2.637 -15.132,7.031 -20.601,14.746 -5.566,7.715 -9.082,18.457 -9.082,33.594 l 0,79.004 22.848,0" />
        <path
           inkscape:connector-curvature="0"
           id="path5341-4-1-9-4-7-54-8"
           style="fill:#c04384;fill-opacity:1;fill-rule:nonzero;stroke:none"
           d="m 700.535,205.078 14.453,0 c 13.282,0 21.875,2.246 27.153,6.152 5.269,3.907 7.129,9.473 7.129,16.407 0,7.031 -1.86,12.89 -7.129,17.09 -5.278,4.199 -13.871,6.64 -27.153,6.64 l -14.453,0 0,-46.289 z m -22.847,68.262 36.914,0 c 8.496,0 17.671,-1.074 26.265,-3.809 8.598,-2.734 16.313,-7.226 22.071,-14.16 5.761,-6.933 9.281,-16.016 9.281,-28.418 0,-8.984 -2.246,-16.308 -6.156,-22.265 -3.907,-5.958 -9.375,-10.645 -15.918,-14.063 2.636,-5.859 7.816,-12.695 13.773,-18.555 5.953,-5.957 12.793,-11.035 18.648,-13.086 l 0,-1.074 -10.156,-15.234 c -6.347,0 -12.89,2.832 -18.941,7.226 -6.059,4.297 -11.621,10.157 -16.114,16.309 -4.496,6.152 -7.914,12.5 -9.765,17.676 -4.199,-0.684 -8.598,-0.782 -12.988,-0.782 l -14.067,0 0,-38.476 -22.847,0 0,128.711" />
        <path
           inkscape:connector-curvature="0"
           id="path5343-5-4-7-9-6-8-9"
           style="fill:#c04384;fill-opacity:1;fill-rule:nonzero;stroke:none"
           d="m 873.684,273.34 0,-21.973 -53.618,0 0,-31.738 52.153,0 0,-21.973 -52.153,0 0,-31.054 53.618,0 0,-21.973 -76.465,0 0,128.711 76.465,0" />
        <path
           inkscape:connector-curvature="0"
           id="path5345-1-8-3-1-8-12-7"
           style="fill:#c04384;fill-opacity:1;fill-rule:nonzero;stroke:none"
           d="m 1013.92,193.262 -17.389,50.586 -17.476,-50.586 34.865,0 z m -30.768,82.031 26.758,0 45.02,-130.664 -24.22,0 -9.18,26.66 -49.999,0 -9.176,-26.66 -24.218,0 45.015,130.664" />
        <path
           inkscape:connector-curvature="0"
           id="path5347-7-9-9-0-9-89-3"
           style="fill:#c04384;fill-opacity:1;fill-rule:nonzero;stroke:none"
           d="m 1093.41,144.629 -22.85,0 0,128.711 22.85,0 53.51,-85.645 0,85.645 22.86,0 0,-128.711 -22.86,0 -53.51,85.547 0,-85.547" />
        <path
           inkscape:connector-curvature="0"
           id="path5349-5-6-1-7-0-3-6"
           style="fill:#c04384;fill-opacity:1;fill-rule:nonzero;stroke:none"
           d="m 1218.02,166.504 17.09,0 c 18.06,0 29.88,6.055 37.3,14.355 7.33,8.301 10.06,18.946 10.06,28.223 0,10.645 -4.1,21.289 -12.3,29.199 -8.21,7.813 -20.51,13.086 -36.82,13.086 l -15.33,0 0,-84.863 z m -22.85,106.836 42.67,0 c 21,0 38.09,-7.227 50,-18.848 11.92,-11.621 18.46,-27.734 18.46,-45.312 0,-16.016 -5.37,-32.129 -16.51,-44.239 -11.13,-12.109 -27.92,-20.312 -50.87,-20.312 l -43.75,0 0,128.711" />
        <path
           inkscape:connector-curvature="0"
           id="path5351-7-7-2-5-6-6-1"
           style="fill:#c04384;fill-opacity:1;fill-rule:nonzero;stroke:none"
           d="m 1457.95,273.34 0,-21.973 -56.54,0 0,-31.738 54.59,0 0,-21.973 -54.59,0 0,-53.027 -22.85,0 0,128.711 79.39,0" />
        <path
           inkscape:connector-curvature="0"
           id="path5353-1-7-6-8-8-8-2"
           style="fill:#c04384;fill-opacity:1;fill-rule:nonzero;stroke:none"
           d="m 1491.45,210.059 c 0,-12.891 3.42,-24.317 10.06,-32.422 6.54,-8.106 16.31,-12.989 29.2,-12.989 12.5,0 21.97,4.493 28.32,12.305 6.35,7.715 9.67,18.555 9.67,31.152 0,14.747 -4.98,26.172 -12.31,33.79 -7.42,7.617 -17.28,11.523 -27.05,11.523 -9.47,0 -19.04,-3.711 -26.07,-11.035 -7.13,-7.324 -11.82,-18.164 -11.82,-32.324 z m -22.85,-0.977 c 0,18.75 6.35,35.254 17.28,47.168 10.94,11.914 26.47,19.043 44.83,19.043 18.36,0 33.59,-7.129 44.24,-19.043 10.54,-11.914 16.6,-28.418 16.6,-47.168 0,-18.75 -6.25,-35.254 -17.19,-47.168 -10.94,-11.914 -26.37,-19.238 -44.73,-19.238 -18.36,0 -33.69,7.324 -44.23,19.238 -10.65,11.914 -16.8,28.418 -16.8,47.168" />
        <path
           inkscape:connector-curvature="0"
           id="path5355-6-3-2-7-7-0-9"
           style="fill:#c04384;fill-opacity:1;fill-rule:nonzero;stroke:none"
           d="m 1632.95,205.078 14.46,0 c 13.28,0 21.87,2.246 27.15,6.152 5.27,3.907 7.12,9.473 7.12,16.407 0,7.031 -1.85,12.89 -7.12,17.09 -5.28,4.199 -13.87,6.64 -27.15,6.64 l -14.46,0 0,-46.289 z m -22.85,68.262 36.92,0 c 8.49,0 17.67,-1.074 26.27,-3.809 8.59,-2.734 16.3,-7.226 22.07,-14.16 5.76,-6.933 9.27,-16.016 9.27,-28.418 0,-8.984 -2.24,-16.308 -6.15,-22.265 -3.9,-5.958 -9.37,-10.645 -15.92,-14.063 2.64,-5.859 7.82,-12.695 13.77,-18.555 5.96,-5.957 12.8,-11.035 18.66,-13.086 l 0,-1.074 -10.16,-15.234 c -6.35,0 -12.89,2.832 -18.95,7.226 -6.05,4.297 -11.62,10.157 -16.11,16.309 -4.49,6.152 -7.91,12.5 -9.77,17.676 -4.19,-0.684 -8.59,-0.782 -12.98,-0.782 l -14.07,0 0,-38.476 -22.85,0 0,128.711" />
        <path
           inkscape:connector-curvature="0"
           id="path5357-9-7-6-0-9-2-3"
           style="fill:#c04384;fill-opacity:1;fill-rule:nonzero;stroke:none"
           d="m 1806.1,273.34 0,-21.973 -53.61,0 0,-31.738 52.14,0 0,-21.973 -52.14,0 0,-31.054 53.61,0 0,-21.973 -76.47,0 0,128.711 76.47,0" />
        <path
           inkscape:connector-curvature="0"
           id="path5359-8-1-6-4-0-10-1"
           style="fill:#c04384;fill-opacity:1;fill-rule:nonzero;stroke:none"
           d="m 1889.3,251.66 c -5.96,1.27 -14.84,2.149 -23.44,2.149 -7.52,0 -13.77,-0.684 -17.96,-2.539 -4.2,-1.856 -6.55,-4.688 -6.55,-9.278 0,-4.687 2.83,-8.594 7.13,-11.914 4.3,-3.32 10.06,-6.25 15.72,-8.594 2.84,-1.269 5.57,-2.343 8.21,-3.418 5.37,-2.05 10.54,-4.199 16.5,-8.398 5.96,-4.297 10.55,-9.863 13.28,-16.699 1.27,-3.418 1.96,-7.227 1.96,-11.328 0,-13.184 -7.43,-22.852 -17.97,-29.297 -10.55,-6.446 -24.32,-9.668 -36.92,-9.668 -10.06,0 -20.11,1.855 -28.71,5.664 l 0,21.484 0.29,0.098 c 3.62,-1.465 8.5,-2.832 13.77,-3.906 5.28,-1.172 11.04,-1.856 16.61,-1.856 8.88,0 16.21,1.856 21.38,4.785 5.08,2.93 8.01,7.032 8.01,11.817 0,4.687 -2.83,8.691 -7.03,12.011 -4.3,3.321 -9.86,6.055 -15.53,8.399 -2.83,1.172 -5.66,2.246 -8.4,3.32 -5.47,2.051 -10.45,4.199 -16.31,8.301 -5.85,4.102 -10.64,9.473 -13.37,16.504 -1.47,3.516 -2.15,7.422 -2.15,11.719 0,12.402 6.35,20.996 15.52,26.464 9.18,5.469 21.29,7.813 33.11,7.813 8.3,0 16.11,-1.172 23.14,-3.027 l -0.29,-20.606" />
        <path
           inkscape:connector-curvature="0"
           id="path5361-1-2-5-8-3-51-9"
           style="fill:#c04384;fill-opacity:1;fill-rule:nonzero;stroke:none"
           d="m 2007.08,273.34 0,-21.973 -39.07,0 0,-106.738 -22.85,0 0,106.738 -39.06,0 0,21.973 100.98,0" />
      </g>
      <g
         transform="matrix(0.15348456,0,0,-0.15348456,718.03609,2188.7266)"
         id="g5297-7-4-0-6-0-3-1-4"
         style="fill:#c04384;fill-opacity:1">
        <path
           inkscape:connector-curvature="0"
           id="path5299-4-8-3-9-4-3-08-7"
           style="fill:#c04384;fill-opacity:1;fill-rule:nonzero;stroke:none"
           d="m 228.762,380.879 12.984,0 c 14.067,0 25.488,1.758 33.496,6.25 8.012,4.492 12.403,11.816 12.403,22.851 0,11.719 -4.2,19.043 -11.817,23.438 -7.613,4.297 -18.457,5.762 -31.64,5.762 l -15.426,0 0,-58.301 z m -15.141,72.461 31.543,0 c 21.484,0 35.742,-3.32 44.731,-10.254 8.984,-7.031 12.593,-17.481 12.593,-31.836 0,-9.863 -1.953,-17.676 -5.758,-23.828 -3.808,-6.25 -9.281,-10.645 -16.015,-13.77 1.558,-4.004 4.297,-9.082 7.808,-14.257 3.418,-5.176 7.524,-10.45 11.915,-14.747 4.296,-4.394 8.792,-8.007 13.085,-9.668 l -8.296,-12.304 c -5.082,1.074 -10.356,4.98 -15.332,10.351 -5.082,5.371 -9.868,11.914 -13.965,18.457 -4.106,6.543 -7.524,12.793 -9.77,17.481 -8.301,-1.66 -17.769,-2.246 -28.023,-2.246 l -9.375,0 0,-42.09 -15.141,0 0,128.711" />
        <path
           inkscape:connector-curvature="0"
           id="path5301-2-4-4-8-2-7-50-8"
           style="fill:#c04384;fill-opacity:1;fill-rule:nonzero;stroke:none"
           d="m 411.57,453.34 0,-14.063 -62.398,0 0,-43.261 62.398,0 0,-14.063 -62.398,0 0,-43.262 62.398,0 0,-14.062 -77.539,0 0,128.711 77.539,0" />
        <path
           inkscape:connector-curvature="0"
           id="path5303-5-8-7-7-9-3-6-4"
           style="fill:#c04384;fill-opacity:1;fill-rule:nonzero;stroke:none"
           d="m 425.535,342.109 c 6.836,-3.125 19.438,-5.371 28.32,-5.371 14.844,0 29.497,5.371 29.497,21.192 0,8.593 -4.004,13.672 -11.332,18.261 -6.153,3.907 -30.665,15.43 -35.934,19.825 -6.25,4.98 -10.156,12.988 -10.156,24.609 0,24.219 17.285,34.668 39.84,34.668 7.914,0 15.625,-1.367 22.66,-3.418 l 0,-12.891 -0.293,-0.195 c -5.864,1.172 -14.16,2.637 -22.367,2.637 -14.254,0 -26.075,-4.59 -26.075,-19.629 0,-6.348 2.051,-9.863 5.571,-12.988 6.343,-5.664 26.367,-13.77 36.035,-20.704 10.547,-7.519 16.109,-12.5 16.109,-26.855 0,-25.586 -21.387,-38.574 -45.894,-38.574 -9.375,0 -18.457,1.855 -26.274,5.664 l 0,13.672 0.293,0.097" />
        <path
           inkscape:connector-curvature="0"
           id="path5305-2-1-7-2-6-2-46-5"
           style="fill:#c04384;fill-opacity:1;fill-rule:nonzero;stroke:none"
           d="m 599.363,453.34 0,-14.063 -62.398,0 0,-43.261 62.398,0 0,-14.063 -62.398,0 0,-43.262 62.398,0 0,-14.062 -77.539,0 0,128.711 77.539,0" />
        <path
           inkscape:connector-curvature="0"
           id="path5307-4-6-1-8-1-6-2-0"
           style="fill:#c04384;fill-opacity:1;fill-rule:nonzero;stroke:none"
           d="m 684.719,368.672 -23.633,68.457 -23.637,-68.457 47.27,0 z m -52.051,-14.063 -10.355,-29.98 -15.625,0 44.242,128.711 20.215,0 44.335,-128.711 -15.625,0 -10.351,29.98 -56.836,0" />
        <path
           inkscape:connector-curvature="0"
           id="path5309-4-8-6-2-0-5-5-3"
           style="fill:#c04384;fill-opacity:1;fill-rule:nonzero;stroke:none"
           d="m 748.684,380.879 12.988,0 c 14.058,0 25.484,1.758 33.496,6.25 8.008,4.492 12.398,11.816 12.398,22.851 0,11.719 -4.199,19.043 -11.812,23.438 -7.617,4.297 -18.457,5.762 -31.645,5.762 l -15.425,0 0,-58.301 z m -15.137,72.461 31.543,0 c 21.48,0 35.738,-3.32 44.723,-10.254 8.988,-7.031 12.597,-17.481 12.597,-31.836 0,-9.863 -1.949,-17.676 -5.762,-23.828 -3.804,-6.25 -9.277,-10.645 -16.011,-13.77 1.558,-4.004 4.297,-9.082 7.808,-14.257 3.418,-5.176 7.524,-10.45 11.914,-14.747 4.297,-4.394 8.789,-8.007 13.086,-9.668 l -8.3,-12.304 c -5.079,1.074 -10.348,4.98 -15.332,10.351 -5.079,5.371 -9.864,11.914 -13.961,18.457 -4.106,6.543 -7.524,12.793 -9.766,17.481 -8.305,-1.66 -17.773,-2.246 -28.027,-2.246 l -9.375,0 0,-42.09 -15.137,0 0,128.711" />
        <path
           inkscape:connector-curvature="0"
           id="path5311-3-5-5-9-4-2-86-6"
           style="fill:#c04384;fill-opacity:1;fill-rule:nonzero;stroke:none"
           d="m 939.988,340.547 0,-13.867 c -4.39,-1.27 -9.566,-2.246 -14.644,-2.93 -5.176,-0.781 -10.449,-1.074 -15.039,-1.074 -21.489,0 -37.602,7.031 -48.149,19.14 -10.64,12.11 -16.011,29.2 -16.011,49.219 0.386,18.067 5.664,34.278 16.21,45.801 10.543,11.523 26.461,18.457 47.95,18.457 4.59,0 9.863,-0.391 15.039,-1.074 5.078,-0.684 10.254,-1.66 14.644,-2.93 l 0,-13.867 -0.679,-0.391 c -4.59,1.465 -9.668,2.442 -14.653,3.125 -4.976,0.684 -9.668,0.977 -13.57,0.977 -16.699,0 -29.199,-5.371 -37.402,-14.453 -8.301,-9.082 -12.5,-22.266 -12.5,-37.598 0,-15.234 4.097,-28.223 12.402,-37.5 8.301,-9.277 20.699,-14.746 37.5,-14.746 3.902,0 8.594,0.293 13.57,0.977 4.985,0.683 10.063,1.66 14.653,3.125 l 0.679,-0.391" />
        <path
           inkscape:connector-curvature="0"
           id="path5313-8-2-5-9-2-6-2-1"
           style="fill:#c04384;fill-opacity:1;fill-rule:nonzero;stroke:none"
           d="m 974.656,381.465 0,-56.836 -15.136,0 0,128.711 15.136,0 0,-56.836 62.794,0 0,56.836 15.14,0 0,-128.711 -15.14,0 0,56.836 -62.794,0" />
        <path
           inkscape:connector-curvature="0"
           id="path5315-6-1-4-6-2-5-84-0"
           style="fill:#c04384;fill-opacity:1;fill-rule:nonzero;stroke:none"
           d="m 1142.43,324.629 15.0391,0 0,128.711 -15.0391,0 0,-128.711 z" />
        <path
           inkscape:connector-curvature="0"
           id="path5317-0-9-6-0-2-8-72-6"
           style="fill:#c04384;fill-opacity:1;fill-rule:nonzero;stroke:none"
           d="m 1203.86,324.629 -15.14,0 0,128.711 15.72,0 62.21,-99.512 0,99.512 15.14,0 0,-128.711 -15.14,0 -62.79,100.391 0,-100.391" />
        <path
           inkscape:connector-curvature="0"
           id="path5319-8-9-8-2-0-7-40-3"
           style="fill:#c04384;fill-opacity:1;fill-rule:nonzero;stroke:none"
           d="m 1305.52,342.109 c 6.83,-3.125 19.43,-5.371 28.32,-5.371 14.84,0 29.49,5.371 29.49,21.192 0,8.593 -4,13.672 -11.33,18.261 -6.15,3.907 -30.66,15.43 -35.94,19.825 -6.25,4.98 -10.15,12.988 -10.15,24.609 0,24.219 17.28,34.668 39.84,34.668 7.91,0 15.63,-1.367 22.66,-3.418 l 0,-12.891 -0.29,-0.195 c -5.86,1.172 -14.16,2.637 -22.37,2.637 -14.26,0 -26.07,-4.59 -26.07,-19.629 0,-6.348 2.05,-9.863 5.56,-12.988 6.35,-5.664 26.37,-13.77 36.04,-20.704 10.55,-7.519 16.11,-12.5 16.11,-26.855 0,-25.586 -21.38,-38.574 -45.9,-38.574 -9.37,0 -18.45,1.855 -26.27,5.664 l 0,13.672 0.3,0.097" />
        <path
           inkscape:connector-curvature="0"
           id="path5321-9-6-1-7-5-9-62-2"
           style="fill:#c04384;fill-opacity:1;fill-rule:nonzero;stroke:none"
           d="m 1469.67,453.34 0,-14.063 -39.84,0 0,-114.648 -15.04,0 0,114.648 -39.84,0 0,14.063 94.72,0" />
        <path
           inkscape:connector-curvature="0"
           id="path5323-2-0-0-6-5-6-99-0"
           style="fill:#c04384;fill-opacity:1;fill-rule:nonzero;stroke:none"
           d="m 1489.69,324.629 15.0391,0 0,128.711 -15.0391,0 0,-128.711 z" />
        <path
           inkscape:connector-curvature="0"
           id="path5325-2-6-5-1-2-0-0-6"
           style="fill:#c04384;fill-opacity:1;fill-rule:nonzero;stroke:none"
           d="m 1619.48,453.34 0,-14.063 -39.85,0 0,-114.648 -15.04,0 0,114.648 -39.84,0 0,14.063 94.73,0" />
        <path
           inkscape:connector-curvature="0"
           id="path5327-3-4-1-3-9-4-8-1"
           style="fill:#c04384;fill-opacity:1;fill-rule:nonzero;stroke:none"
           d="m 1730.32,453.34 0,-80.86 c 0,-14.55 -2.93,-25.097 -7.62,-32.421 -4.69,-7.422 -11.13,-11.817 -18.26,-14.258 -7.13,-2.442 -14.94,-3.125 -22.27,-3.125 -7.32,0 -14.94,0.683 -21.97,3.125 -7.13,2.441 -13.48,6.738 -18.16,14.16 -4.69,7.422 -7.52,17.773 -7.52,32.519 l 0,80.86 15.04,0 0,-75.977 c 0,-12.793 1.85,-21.679 4.98,-27.636 3.02,-5.957 7.42,-9.278 12.2,-11.133 4.79,-1.856 10.16,-2.051 15.34,-2.051 5.76,0 11.32,0.293 16.3,2.246 4.98,1.856 9.09,5.176 12.11,11.231 3.03,6.054 4.79,14.746 4.79,27.343 l 0,75.977 15.04,0" />
        <path
           inkscape:connector-curvature="0"
           id="path5329-1-9-8-2-0-1-1-5"
           style="fill:#c04384;fill-opacity:1;fill-rule:nonzero;stroke:none"
           d="m 1840.47,453.34 0,-14.063 -39.84,0 0,-114.648 -15.04,0 0,114.648 -39.84,0 0,14.063 94.72,0" />
        <path
           inkscape:connector-curvature="0"
           id="path5331-8-9-9-1-2-0-3-5"
           style="fill:#c04384;fill-opacity:1;fill-rule:nonzero;stroke:none"
           d="m 1930.22,453.34 0,-14.063 -62.4,0 0,-43.261 62.4,0 0,-14.063 -62.4,0 0,-43.262 62.4,0 0,-14.062 -77.54,0 0,128.711 77.54,0" />
      </g>
    </g>
    <path
       style="fill:none;fill-opacity:1;stroke:#ffffff;stroke-width:5;stroke-miterlimit:4;stroke-dasharray:none;stroke-opacity:1"
       d="m 219.41894,322.20771 c 0,62.2891 0,124.5781 0,186.8672 54.12761,30.7611 108.25521,61.5221 162.38281,92.2832 52.9264,-30.7494 105.8529,-61.4987 158.7793,-92.2481 0,-62.3118 0,-124.6236 0,-186.9355 -52.9264,-30.5566 -105.8529,-61.1133 -158.7793,-91.6699 -54.1276,30.5677 -108.2552,61.1354 -162.38281,91.7031 z"
       id="polygon4929-3-1-0-2-4-1-6-1-4"
       inkscape:connector-curvature="0"
       inkscape:export-xdpi="150"
       inkscape:export-ydpi="150" />
  </g>
</svg>
