<?xml version="1.0" encoding="UTF-8" standalone="no"?>
<!-- Created with Inkscape (http://www.inkscape.org/) -->

<svg
   xmlns:dc="http://purl.org/dc/elements/1.1/"
   xmlns:cc="http://creativecommons.org/ns#"
   xmlns:rdf="http://www.w3.org/1999/02/22-rdf-syntax-ns#"
   xmlns:svg="http://www.w3.org/2000/svg"
   xmlns="http://www.w3.org/2000/svg"
   xmlns:sodipodi="http://sodipodi.sourceforge.net/DTD/sodipodi-0.dtd"
   xmlns:inkscape="http://www.inkscape.org/namespaces/inkscape"
   id="svg2"
   version="1.1"
   inkscape:version="0.91 r13725"
   width="2998"
   height="526"
   sodipodi:docname="Biomath_logo_workfile.svg"
   inkscape:export-filename="C:\Users\woute\Desktop\biomath_logo\bitmap.png"
   inkscape:export-xdpi="300"
   inkscape:export-ydpi="300">
  <metadata
     id="metadata8">
    <rdf:RDF>
      <cc:Work
         rdf:about="">
        <dc:format>image/svg+xml</dc:format>
        <dc:type
           rdf:resource="http://purl.org/dc/dcmitype/StillImage" />
        <dc:title />
      </cc:Work>
    </rdf:RDF>
  </metadata>
  <defs
     id="defs6">
    <inkscape:perspective
       sodipodi:type="inkscape:persp3d"
       inkscape:vp_x="0 : 0.5 : 1"
       inkscape:vp_y="0 : 1000 : 0"
       inkscape:vp_z="1 : 0.5 : 1"
       inkscape:persp3d-origin="0.5 : 0.33333333 : 1"
       id="perspective10" />
    <inkscape:perspective
       id="perspective2834"
       inkscape:persp3d-origin="0.5 : 0.33333333 : 1"
       inkscape:vp_z="1 : 0.5 : 1"
       inkscape:vp_y="0 : 1000 : 0"
       inkscape:vp_x="0 : 0.5 : 1"
       sodipodi:type="inkscape:persp3d" />
    <inkscape:perspective
       id="perspective2826"
       inkscape:persp3d-origin="0.5 : 0.33333333 : 1"
       inkscape:vp_z="1 : 0.5 : 1"
       inkscape:vp_y="0 : 1000 : 0"
       inkscape:vp_x="0 : 0.5 : 1"
       sodipodi:type="inkscape:persp3d" />
    <inkscape:perspective
       id="perspective3623"
       inkscape:persp3d-origin="0.5 : 0.33333333 : 1"
       inkscape:vp_z="1 : 0.5 : 1"
       inkscape:vp_y="0 : 1000 : 0"
       inkscape:vp_x="0 : 0.5 : 1"
       sodipodi:type="inkscape:persp3d" />
    <inkscape:perspective
       id="perspective3645"
       inkscape:persp3d-origin="0.5 : 0.33333333 : 1"
       inkscape:vp_z="1 : 0.5 : 1"
       inkscape:vp_y="0 : 1000 : 0"
       inkscape:vp_x="0 : 0.5 : 1"
       sodipodi:type="inkscape:persp3d" />
    <inkscape:perspective
       id="perspective2842"
       inkscape:persp3d-origin="0.5 : 0.33333333 : 1"
       inkscape:vp_z="1 : 0.5 : 1"
       inkscape:vp_y="0 : 1000 : 0"
       inkscape:vp_x="0 : 0.5 : 1"
       sodipodi:type="inkscape:persp3d" />
    <inkscape:perspective
       id="perspective3766"
       inkscape:persp3d-origin="0.5 : 0.33333333 : 1"
       inkscape:vp_z="1 : 0.5 : 1"
       inkscape:vp_y="0 : 1000 : 0"
       inkscape:vp_x="0 : 0.5 : 1"
       sodipodi:type="inkscape:persp3d" />
  </defs>
  <sodipodi:namedview
     pagecolor="#ffffff"
     bordercolor="#666666"
     borderopacity="1"
     objecttolerance="10"
     gridtolerance="10"
     guidetolerance="10"
     inkscape:pageopacity="0"
     inkscape:pageshadow="2"
     inkscape:window-width="1920"
     inkscape:window-height="1005"
     id="namedview4"
     showgrid="false"
     inkscape:zoom="0.23747472"
     inkscape:cx="576.79658"
     inkscape:cy="402.2998"
     inkscape:window-x="-9"
     inkscape:window-y="-9"
     inkscape:window-maximized="1"
     inkscape:current-layer="svg2" />
  <g
     id="g3731">
    <path
       id="path3085"
       d="m 779.5,525.5507 c -1.65,-0.2238 -7.05,-0.9048 -12,-1.5134 -55.42364,-6.8143 -108.11497,-32.252 -148.87128,-71.8701 -43.68356,-42.4637 -70.12602,-95.2118 -78.2223,-156.0398 -1.99873,-15.0167 -2.25462,-46.9399 -0.49297,-61.5 12.27032,-101.4147 78.15126,-184.4546 173.47748,-218.6603 30.85336,-11.071 76.521,-17.9424 90.80456,-13.663 8.81088,2.6398 16.0202,14.5296 14.31649,23.6111 -2.43437,12.9764 -12.01812,19.2122 -29.52682,19.2122 -17.28805,0 -47.31182,6.4359 -67.63052,14.4974 -99.11412,39.3234 -155.89082,143.5701 -134.79934,247.5026 6.95812,34.2876 23.76484,69.445 45.80405,95.816 14.49207,17.3405 35.83861,35.9545 54.14065,47.2101 18.13177,11.1509 45.12361,22.2177 65.69903,26.9369 23.65551,5.4256 56.25258,6.6483 80.87376,3.0334 94.17966,-13.8272 168.70401,-87.3633 184.44231,-181.9964 2.2471,-13.5117 3.0306,-41.9469 1.5509,-56.2842 -3.1828,-30.8382 -11.9161,-58.2616 -27.57217,-86.5791 C 985.61854,144.6373 985,142.9713 985,137.7733 c 0,-20.112 24.4752,-29.397 37.7215,-14.3103 7.1657,8.1613 19.3271,33.0191 26.7348,54.6457 29.4399,85.9492 12.7787,180.3668 -44.2928,251.0038 -24.8863,30.8017 -61.30816,58.8647 -96.18175,74.1079 -21.71643,9.4923 -47.41982,17.0065 -69.98175,20.4588 -9.93066,1.5196 -52.27543,2.8515 -59.5,1.8715 z"
       style="fill:#1e64c8;fill-opacity:1" />
    <path
       id="path3083"
       d="M 0 4 L 0 263.625 L 0 523.25 L 87.25 522.84375 C 148.13166 522.56195 176.91773 522.0883 182.5 521.25 C 215.45934 516.3 239.89001 507.6862 261.4375 493.4375 C 274.76315 484.6257 291.48446 467.79775 298.9375 455.71875 C 312.3767 433.93815 319.06595 405.9883 317.65625 377.5625 C 315.11306 326.2804 291.74285 290.50345 246.90625 269.21875 C 235.43313 263.77225 220.41736 258.35675 209.25 255.65625 C 205.26611 254.69285 202.24011 253.57675 202.5 253.15625 C 202.75988 252.73575 205.70399 250.7507 209.0625 248.75 C 232.95723 234.516 253.89756 211.5757 263.5 189.125 C 278.17968 154.8036 276.75101 108.2944 260 75.6875 C 242.96089 42.5199 210.37979 19.47065 167.40625 10.15625 C 143.10351 4.88875 141.85973 4.82575 68.75 4.40625 L 0 4 z M 39 36.90625 L 79.25 37.40625 C 119.77366 37.92735 129.35604 38.66245 148 42.59375 C 191.39166 51.74335 219.08167 75.6093 228.25 111.8125 C 230.19845 119.5064 230.47575 123.2045 230.46875 141.125 C 230.45951 163.4816 229.74038 168.1109 224.03125 182.875 C 220.1089 193.0184 214.16018 202.0644 206.0625 210.1875 C 189.46275 226.8394 168.43772 236.10275 134.5 241.71875 C 126.70933 243.00795 115.05511 243.47475 81.75 243.84375 L 39 244.3125 L 39 140.625 L 39 36.90625 z M 39 278.125 L 90.75 278.125 C 119.2125 278.1307 147.9 278.59805 154.5 279.15625 C 200.72604 283.06585 231.18425 294.8256 251.9375 316.75 C 258.72185 323.9171 260.97983 327.17555 265.46875 336.46875 C 273.61407 353.33155 276.68694 369.4059 275.6875 389.625 C 274.33299 417.0274 265.92572 437.19985 248.53125 454.71875 C 232.11265 471.25485 212.88612 480.76755 184.625 486.34375 C 173.9566 488.44875 170.69702 488.5431 106.25 488.875 L 39 489.21875 L 39 383.6875 L 39 278.125 z "
       style="fill:#1e64c8;fill-opacity:1" />
    <path
       id="path3077"
       d="m 392,263.6274 0,-259.5 19.5,0 19.5,0 0,259.5 0,259.5 -19.5,0 -19.5,0 0,-259.5 z"
       style="fill:#1e64c8;fill-opacity:1" />
    <path
       id="path3075"
       d="m 1156,263.6274 0,-259.5 19.75,0 19.75,0 96,119.934 c 52.8,65.9637 96.45,119.9423 97,119.9526 0.55,0.01 43.975,-53.9606 96.5,-119.9351 l 95.5,-119.9536 19.75,0 19.75,0 0,259.5 0,259.5 -19.4979,0 -19.4978,0 -0.2522,-230.0757 -0.2521,-230.0758 -95,119.7688 c -52.25,65.8728 -95.4709,120.3938 -96.0465,121.1576 -0.8139,1.0803 -22.4765,-25.5362 -97.5,-119.797 L 1195.5,62.9173 l -0.2521,230.104 -0.2522,230.104 -19.4978,0 -19.4979,0 0,-259.5 z"
       style="fill:#1e64c8;fill-opacity:1" />
    <path
       id="path3073"
       d="M 1914.5 0.125 L 1798 260.71875 C 1733.925 404.05585 1681.3395 521.72715 1681.1562 522.21875 C 1680.9672 522.72555 1689.6687 523.125 1701.25 523.125 L 1721.6875 523.125 L 1761.5938 433.375 L 1801.5 343.625 L 1925.125 343.375 L 2048.7188 343.125 L 2088.4688 432.375 C 2110.329 481.4646 2128.5472 521.98205 2128.9375 522.40625 C 2129.3278 522.83025 2138.6686 523.05545 2149.6875 522.90625 L 2169.7188 522.625 L 2053 261.625 L 1936.2812 0.625 L 1925.4062 0.375 L 1914.5 0.125 z M 1925.6562 68.0625 C 1925.9179 68.065786 1926.0977 68.360675 1926.2812 68.71875 C 1927.5658 71.22505 2027.1228 294.3614 2032.0938 305.875 L 2033.9375 310.125 L 1925.4688 310.125 C 1865.8133 310.125 1817 309.7875 1817 309.375 C 1817.0038 308.9625 1841.266 253.98725 1870.9062 187.21875 C 1917.5312 82.1904 1923.8249 68.039501 1925.6562 68.0625 z "
       style="fill:#1e64c8;fill-opacity:1" />
    <path
       id="path3069"
       d="m 2291,280.1274 0,-243 -95,0 -95,0 0,-16.5 0,-16.5 209.5,0 209.5,0 0,16.5 0,16.5 -95,0 -95,0 0,243 0,243 -19.5,0 -19.5,0 0,-243 z"
       style="fill:#1e64c8;fill-opacity:1" />
    <path
       id="path3067"
       d="m 2582,263.6274 0,-259.5 19.5,0 19.5,0 0,119.5 0,119.5 169,0 169,0 0,-119.5 0,-119.5 19.5,0 19.5,0 0,259.5 0,259.5 -19.5,0 -19.5,0 0,-123 0,-123 -169,0 -169,0 0,123 0,123 -19.5,0 -19.5,0 0,-259.5 z"
       style="fill:#1e64c8;fill-opacity:1" />
    <path
       id="path3065"
       d="m 791.5,414.2374 c -16.77893,-7.744 -14.58665,-33.0083 3.26609,-37.6393 C 808.01457,373.1615 820,382.092 820,395.4002 c 0,6.6962 -1.21207,10.2474 -4.81362,14.1033 -5.89998,6.3166 -15.91859,8.3189 -23.68638,4.7339 z"
       style="fill:#27abad;fill-opacity:1" />
    <path
       id="path3063"
       d="M 694.99353,385.253 C 684.07251,381.6697 676,370.991 676,360.1274 c 0,-4.9549 2.95157,-12.5834 6.45013,-16.6707 12.91407,-15.0872 38.46124,-9.8363 44.0724,9.0585 1.97959,6.666 1.86198,10.5095 -0.5161,16.8655 -2.14557,5.7345 -7.30881,11.4184 -12.96124,14.2681 -3.86037,1.9463 -14.20692,2.8657 -18.05166,1.6042 z"
       style="fill:#1e84a8;fill-opacity:1" />
    <path
       id="path3061"
       d="m 906.24583,350.1525 c -13.70648,-6.2215 -16.57542,-23.7933 -5.58741,-34.222 15.00669,-14.2429 39.15593,0.1284 34.29121,20.4069 -2.96625,12.3647 -17.00901,19.1235 -28.7038,13.8151 z"
       style="fill:#1e84a8;fill-opacity:1" />
    <path
       id="path3059"
       d="m 832.18184,330.5307 c -11.65074,-5.8058 -14.61792,-21.1424 -5.99132,-30.9675 4.4442,-5.0617 8.32778,-6.7821 15.30948,-6.7821 6.97663,0 10.86533,1.7205 15.297,6.7679 6.74868,7.6863 6.71034,18.5142 -0.093,26.2627 -6.52637,7.4331 -15.57957,9.1753 -24.52219,4.719 z"
       style="fill:#27abad;fill-opacity:1" />
    <path
       id="path3057"
       d="m 761.5,313.7398 c -4.07142,-1.777 -9.98503,-8.522 -11.5023,-13.1194 -2.9134,-8.8277 1.1733,-19.1647 9.50765,-24.049 3.99191,-2.3394 5.38826,-2.6192 11.38177,-2.2805 5.12312,0.2895 7.70215,0.9825 10.31244,2.7711 17.15894,11.7575 9.05695,38.0756 -11.69956,38.0043 -2.75,-0.01 -6.35,-0.6064 -8,-1.3265 z"
       style="fill:#27abad;fill-opacity:1" />
    <path
       id="path3055"
       d="m 685.00539,277.5153 c -9.52917,-3.4525 -17.41911,-10.7798 -21.90428,-20.3423 -2.22978,-4.7539 -2.60111,-6.9018 -2.60111,-15.0456 0,-8.3731 0.34411,-10.2452 2.90094,-15.782 8.77464,-19.0017 32.54116,-27.3818 51.02569,-17.9918 6.51194,3.308 14.0374,11.2063 17.1992,18.0514 2.5272,5.4712 2.87417,7.3692 2.87417,15.7224 0,8.2145 -0.36266,10.2738 -2.68006,15.2181 -3.5577,7.5905 -10.44542,14.7753 -17.54238,18.2989 -4.90702,2.4363 -7.20898,2.9161 -15.27756,3.184 -6.92597,0.2299 -10.71782,-0.1259 -13.99461,-1.3131 z"
       style="fill:#27abad;fill-opacity:1" />
    <path
       id="path3053"
       d="M 910.21818,271.5205 C 904.69953,268.706 902.5,264.6042 902.5,257.1274 c 0,-7.6542 2.27633,-11.7169 8.11828,-14.4891 4.81022,-2.2826 12.94579,-1.6696 17.10007,1.2886 8.59047,6.1169 8.61431,20.144 0.0451,26.5312 -3.72514,2.7766 -13.07419,3.3427 -17.54526,1.0624 z"
       style="fill:#1e84a8;fill-opacity:1" />
    <path
       id="path3051"
       d="m 817.28604,257.734 c -10.39368,-3.3897 -19.43172,-11.4184 -24.12563,-21.4314 -2.32484,-4.9594 -2.66041,-6.9365 -2.66041,-15.6752 0,-8.7568 0.33319,-10.7109 2.68006,-15.7181 3.74237,-7.9846 10.76459,-15.137 18.69391,-19.0406 6.0967,-3.0014 7.32562,-3.2413 16.605,-3.2413 8.87809,0 10.70536,0.3192 16.02103,2.7985 7.87502,3.673 15.60984,11.3748 19.1787,19.0969 2.50001,5.4094 2.8213,7.2434 2.8213,16.1046 0,8.9039 -0.31505,10.6821 -2.87417,16.2224 -3.53758,7.6586 -11.37077,15.3524 -19.37319,19.0283 -6.94674,3.1911 -20.09753,4.0961 -26.9666,1.8559 z"
       style="fill:#1e84a8;fill-opacity:1" />
    <path
       id="path3049"
       d="M 887.09195,201.9659 C 881.29901,197.991 879.5,194.7118 879.5,188.1274 c 0,-6.5843 1.79901,-9.8636 7.59195,-13.8385 2.81346,-1.9305 4.37903,-2.2706 8.97345,-1.9495 9.52815,0.6659 15.16537,6.5345 15.16537,15.788 0,9.2535 -5.63722,15.1221 -15.16537,15.788 -4.59442,0.3211 -6.15999,-0.019 -8.97345,-1.9495 z"
       style="fill:#27abad;fill-opacity:1" />
    <path
       id="path3047"
       d="m 735.4,196.7274 c -2.7873,-2.7873 -3.4,-4.1569 -3.4,-7.6 0,-5.7265 5.00964,-11 10.44966,-11 7.39833,0 11.57329,4.2724 11.5281,11.7971 -0.0367,6.1185 -4.64517,10.2029 -11.51202,10.2029 -2.83555,0 -4.43575,-0.77 -7.06574,-3.4 z"
       style="fill:#27abad;fill-opacity:1" />
    <path
       id="path3045"
       d="m 761.5,163.7711 c -11.35408,-5.2559 -12.84364,-21.261 -2.62495,-28.2048 4.66677,-3.1711 13.06936,-3.3799 17.88409,-0.4443 9.75385,5.947 9.78774,20.1023 0.0653,27.3031 -3.38005,2.5034 -11.31808,3.2006 -15.32449,1.346 z"
       style="fill:#27abad;fill-opacity:1" />
    <path
       id="path3043"
       d="m 703.96189,151.8774 c -6.06848,-3.0602 -9.4995,-9.6793 -8.49374,-16.3862 0.9064,-6.0443 6.33821,-12.0834 12.03185,-13.3771 11.20124,-2.545 22.22546,7.5918 19.9532,18.347 -1.119,5.2965 -4.49669,9.7819 -8.85774,11.7624 -5.42795,2.4651 -9.23741,2.375 -14.63357,-0.3461 z"
       style="fill:#27abad;fill-opacity:1" />
    <path
       id="path3041"
       d="m 873.13174,144.0711 c -14.25427,-2.8708 -23.97845,-13.984 -24.88845,-28.4437 -0.60739,-9.6513 2.23759,-17.1113 9.16899,-24.0427 6.21214,-6.2121 12.08063,-8.4573 22.10614,-8.4573 12.22727,0 22.72062,6.7603 27.86097,17.9492 3.27988,7.1393 2.97526,18.8104 -0.68554,26.2652 -6.0787,12.3787 -20.204,19.4195 -33.56211,16.7293 z"
       style="fill:#27abad;fill-opacity:1" />
    <path
       id="path2859"
       d="m 925.5,49.4686 c -11.65556,-6.1339 -15.73166,-18.9267 -9.70578,-30.4616 6.58053,-12.5965 22.89619,-15.5629 33.41875,-6.0758 11.93137,10.7573 9.74435,29.0757 -4.32845,36.2551 -4.75487,2.4258 -15.02718,2.5753 -19.38452,0.2823 z"
       style="fill:#27abad;fill-opacity:1" />
  </g>
</svg>
